<svg id="svg" xmlns="http://www.w3.org/2000/svg" xmlns:xlink="http://www.w3.org/1999/xlink" width="400" height="236.45320197044336" viewBox="0, 0, 400,236.45320197044336"><g id="svgg"><path id="path0" d="M71.702 0.238 C 44.869 2.710,22.434 14.386,10.783 31.944 C -1.656 50.689,-3.701 79.663,6.014 99.507 C 14.735 117.322,30.503 128.391,64.477 140.550 C 65.441 140.894,67.115 141.489,68.199 141.872 C 95.738 151.593,110.948 158.305,119.978 164.723 C 131.067 172.605,136.182 181.451,136.179 192.742 C 136.168 225.858,102.905 241.309,66.667 225.030 C 49.947 217.519,37.104 204.537,22.627 180.515 C 20.602 177.154,20.288 176.606,17.684 171.866 C 14.583 166.224,5.255 146.671,5.255 145.814 C 5.255 145.660,5.107 145.604,4.908 145.680 C 4.718 145.753,4.521 145.813,4.470 145.813 C 4.420 145.813,4.379 166.018,4.379 190.713 L 4.379 235.612 5.090 235.458 C 5.482 235.374,6.260 235.074,6.819 234.792 C 16.146 230.093,29.383 228.722,44.663 230.872 C 46.771 231.169,48.938 231.467,49.480 231.535 C 50.022 231.603,51.992 231.893,53.859 232.179 C 82.603 236.584,82.177 236.538,92.560 236.393 C 107.467 236.185,119.302 233.318,132.390 226.744 C 155.891 214.941,167.872 193.236,167.203 163.673 C 166.747 143.514,158.975 128.555,143.076 117.234 C 139.485 114.677,131.661 109.688,131.241 109.688 C 131.183 109.688,130.768 109.458,130.319 109.177 C 124.913 105.795,110.407 99.379,97.592 94.703 C 93.172 93.091,91.112 92.329,88.560 91.363 C 87.115 90.816,85.342 90.147,84.620 89.876 C 82.543 89.097,78.196 87.388,76.519 86.691 C 49.953 75.659,40.159 69.827,35.355 62.178 C 27.191 49.179,29.639 29.104,40.720 18.190 C 42.924 16.020,46.419 13.308,49.301 11.532 C 59.198 5.436,71.240 3.628,84.456 6.256 C 99.779 9.301,110.895 16.477,124.181 31.900 C 127.328 35.553,131.560 40.862,132.895 42.832 C 133.076 43.098,134.223 44.728,135.444 46.453 C 140.707 53.890,145.522 61.760,152.165 73.782 C 156.202 81.090,155.910 80.630,156.395 80.444 C 156.886 80.255,156.881 80.002,156.109 66.231 C 155.752 59.848,155.163 49.157,154.802 42.474 C 152.514 0.196,152.816 4.130,151.822 3.677 C 151.362 3.467,150.683 3.512,148.277 3.910 C 141.734 4.992,134.711 5.079,126.656 4.177 C 124.368 3.921,119.836 3.421,116.585 3.066 C 113.333 2.711,108.407 2.170,105.638 1.865 C 90.563 0.205,90.042 0.166,81.773 0.100 C 77.438 0.065,72.906 0.127,71.702 0.238 M181.062 3.496 C 181.062 3.830,182.529 5.210,183.309 5.610 C 193.620 10.897,201.708 22.063,204.025 34.212 C 205.081 39.747,205.036 35.964,205.036 118.446 L 205.036 196.059 204.537 199.189 C 202.262 213.457,195.918 223.071,184.091 230.176 C 180.899 232.094,180.807 232.165,180.972 232.594 C 181.186 233.151,280.558 233.142,280.772 232.585 C 280.924 232.189,280.804 232.078,279.478 231.378 C 278.998 231.125,277.629 230.235,276.435 229.399 C 275.242 228.564,273.960 227.666,273.586 227.405 C 265.255 221.576,259.418 211.698,257.324 199.885 C 256.949 197.769,256.573 121.520,256.928 119.572 L 257.062 118.837 258.301 118.991 C 264.240 119.733,267.643 123.197,274.221 135.194 C 282.110 149.583,285.703 155.886,296.000 173.399 C 297.239 175.506,299.781 179.841,301.650 183.032 C 303.519 186.223,305.838 190.164,306.802 191.790 C 308.793 195.146,311.206 199.243,311.766 200.219 C 311.973 200.580,313.274 202.797,314.656 205.145 C 318.698 212.009,323.186 219.651,323.593 220.361 C 323.800 220.722,324.623 222.126,325.422 223.481 C 326.221 224.836,327.524 227.053,328.318 228.407 C 331.182 233.292,330.734 233.060,337.274 233.060 C 369.716 233.060,400.000 232.913,400.000 232.757 C 400.000 232.650,399.553 232.232,399.007 231.826 C 388.884 224.313,380.645 214.739,370.016 198.139 C 369.360 197.115,368.090 195.145,367.193 193.760 C 364.937 190.279,364.558 189.688,361.140 184.346 C 359.484 181.757,357.692 178.969,357.159 178.150 C 356.625 177.331,355.244 175.164,354.089 173.333 C 352.935 171.503,351.286 168.922,350.425 167.597 C 349.564 166.273,347.288 162.702,345.366 159.664 C 343.444 156.625,341.505 153.571,341.056 152.877 C 340.608 152.183,340.040 151.270,339.796 150.848 C 339.551 150.427,338.145 148.204,336.670 145.909 C 335.196 143.614,331.496 137.802,328.448 132.992 C 325.400 128.183,322.211 123.164,321.361 121.839 C 318.160 116.850,318.178 116.928,320.173 116.481 C 337.332 112.635,351.612 104.062,359.752 92.720 C 368.973 79.872,370.909 61.141,364.808 43.788 C 357.269 22.343,332.978 5.999,305.090 3.609 C 300.592 3.223,181.062 3.114,181.062 3.496 M271.268 8.838 C 277.041 9.858,280.877 11.272,286.481 14.445 C 307.259 26.208,318.804 53.041,314.601 79.803 C 310.707 104.601,295.315 116.871,269.951 115.396 C 267.482 115.252,263.788 115.047,261.741 114.941 L 258.019 114.747 257.417 114.075 L 256.814 113.403 256.818 61.135 C 256.820 32.388,256.894 8.754,256.982 8.615 C 257.455 7.876,266.636 8.019,271.268 8.838 " stroke="none" fill="#000000" fill-rule="evenodd"></path></g></svg>